<svg id="Layer_1" data-name="Layer 1" xmlns="http://www.w3.org/2000/svg" viewBox="0 0 255.12 255.12"><defs><style>.cls-1{fill:#95a5a6;}.cls-2{fill:#f39c12;}.cls-3{fill:#f1c40f;}.cls-4{fill:#e67e22;}.cls-5{fill:#bdc3c7;}</style></defs><path class="cls-1" d="M173.85,113.7c-.19-4.83-.21-9.71-.23-14.88-.12-25.28-.24-51.42-19.9-63-17.36-10.2-35-10.2-52.32,0-19.66,11.56-19.78,37.69-19.9,63,0,5.17,0,10.05-.23,14.88l-27.77-1c.17-4.39.19-9.06.22-14,.14-29.54.31-66.3,33.18-85.61,26.22-15.42,55.1-15.41,81.32,0,32.87,19.31,33,56.07,33.18,85.61,0,5,0,9.62.22,14Z"/><rect class="cls-2" x="39.59" y="100.13" width="175.93" height="153.46" rx="18.15"/><path class="cls-3" d="M203.51,112.31l0-.14a4.29,4.29,0,0,0-.34-3.38c-.77-1.07-15.82,1.48-17.81,1.63q-9.28.75-18.59,1.24-18.6,1-37.25,1.06c-24.86.08-49.66-1.23-74.4-3.54a18.91,18.91,0,0,0-3.66-.18c-1,7.66,6,15.47,12.06,19.5,6.87,4.55,15.06,6.83,23,9.14,13,3.77,26.21,7.86,39.82,8,14.56.17,28.72-4.17,42.63-8.3,7.27-2.15,14.65-4.31,21.08-8.2S202,119.41,203.51,112.31Z"/><path class="cls-4" d="M190.5,173.18H64.62a7.51,7.51,0,1,1,0-15H190.5a7.51,7.51,0,1,1,0,15Z"/><path class="cls-4" d="M190.5,200.75H64.62a7.51,7.51,0,1,1,0-15H190.5a7.51,7.51,0,1,1,0,15Z"/><path class="cls-4" d="M190.5,228.32H64.62a7.51,7.51,0,1,1,0-15H190.5a7.51,7.51,0,1,1,0,15Z"/><path class="cls-5" d="M86.9,28.09c26.22-15.42,55.1-15.41,81.32,0,32.63,19.17,33,55.52,33.18,84.94h.22c-.18-4.39-.2-9.06-.22-14-.14-29.53-.31-66.29-33.18-85.61C142-2,113.12-2,86.9,13.4,54,32.72,53.86,69.48,53.72,99c0,4.95,0,9.63-.22,14h.22C53.86,83.61,54.27,47.26,86.9,28.09Z"/></svg>